# xmcd
#
# Track frame offsets: 
#        150
#        21612
#        33207
#        57114
#        71167
#        80165
#        99069
#        126735
#        147924
#        167392
#        185134
#        208705
#
# Disc length: 3080 seconds
#
# Revision: 0
# Processed by: cddbd v1.5.2PL0 Copyright (c) Steve Scherf et al.
# Submitted via: ExactAudioCopyFreeDBPlugin 1.0
#
DISCID=b00c060c
DTITLE=Split Whiskers - Breakfast in Denmark
DYEAR=2010
DGENRE=Blues
TTITLE0=My Babe
TTITLE1=Empty Arms
TTITLE2=Walkin' Blues
TTITLE3=Minor Swing
TTITLE4=I Want To Be Loved
TTITLE5=Keep My Cool
TTITLE6=Rock Me Baby
TTITLE7=Work Up This Morning
TTITLE8=Ain't That Just Like A Woman
TTITLE9=Help Me
TTITLE10=Hoochie Coochie Man
TTITLE11=Breakfast In Denmark
EXTD=
EXTT0=
EXTT1=
EXTT2=
EXTT3=
EXTT4=
EXTT5=
EXTT6=
EXTT7=
EXTT8=
EXTT9=
EXTT10=
EXTT11=
PLAYORDER=
